<?xml version="1.0" encoding="utf-8"?>
<!-- Generator: Adobe Illustrator 19.0.0, SVG Export Plug-In . SVG Version: 6.00 Build 0)  -->
<svg version="1.1" id="Layer_1" xmlns="http://www.w3.org/2000/svg" xmlns:xlink="http://www.w3.org/1999/xlink" x="0px" y="0px"
	 viewBox="0 0 96 96" style="enable-background:new 0 0 96 96;" xml:space="preserve">
<g id="XMLID_1_">
	<path id="XMLID_6_" d="M63.7,38.8h-2.6v-5.2c0-7.2-5.9-13.1-13.1-13.1s-13.1,5.9-13.1,13.1v5.2h-2.6c-2.9,0-5.2,2.4-5.2,5.2v26.2
		c0,2.9,2.4,5.2,5.2,5.2h31.4c2.9,0,5.2-2.4,5.2-5.2V44.1C69,41.2,66.6,38.8,63.7,38.8z M48,62.7c-2.9,0-5.2-2.4-5.2-5.2
		c0-2.9,2.4-5.2,5.2-5.2s5.2,2.4,5.2,5.2C53.2,60.3,50.9,62.7,48,62.7z M56.1,38.8H39.9v-5.2c0-4.5,3.7-8.1,8.1-8.1
		c4.5,0,8.1,3.7,8.1,8.1V38.8z"/>
</g>
</svg>
